<svg xmlns="http://www.w3.org/2000/svg" width="137" height="20" viewBox="0 0 137 20" role="img" aria-label="C# / .NET WPF"><path fill="#848D97" d="M13.5 5.3 13.5 5.3Q13.5 5.2 13.4 5.1Q13.4 5.1 13.3 5L7.9 1.9Q7.8 1.8 7.7 1.8Q7.6 1.8 7.5 1.8Q7.4 1.8 7.3 1.8Q7.2 1.9 7.2 1.9L1.8 5Q1.6 5.1 1.5 5.3Q1.4 5.5 1.4 5.6V11.9Q1.4 12 1.5 12.1Q1.5 12.2 1.5 12.3L1.5 12.3Q1.6 12.3 1.6 12.4Q1.7 12.5 1.7 12.5L7.1 15.6Q7.2 15.7 7.3 15.7Q7.4 15.7 7.5 15.7Q7.6 15.7 7.7 15.7Q7.8 15.7 7.8 15.6L13.2 12.5Q13.4 12.4 13.5 12.2Q13.6 12 13.6 11.9V5.6Q13.6 5.5 13.6 5.5Q13.5 5.4 13.5 5.3ZM7.5 13.2Q6.6 13.2 5.8 12.8Q5 12.5 4.4 11.9Q3.8 11.3 3.4 10.5Q3.1 9.7 3.1 8.7Q3.1 7.8 3.4 7Q3.8 6.2 4.4 5.6Q5 5 5.8 4.7Q6.6 4.3 7.5 4.3Q8.1 4.3 8.7 4.5Q9.3 4.6 9.8 4.9Q10.3 5.2 10.7 5.6Q11.1 6.1 11.4 6.6L9.9 7.4Q9.5 6.8 8.9 6.4Q8.3 6 7.5 6Q6.9 6 6.4 6.2Q5.9 6.4 5.6 6.8Q5.2 7.2 5 7.7Q4.8 8.2 4.8 8.7Q4.8 9.3 5 9.8Q5.2 10.3 5.6 10.7Q5.9 11.1 6.4 11.3Q6.9 11.5 7.5 11.5Q8.3 11.5 8.9 11.1Q9.5 10.7 9.9 10.1L11.4 11Q11.1 11.5 10.6 11.9Q10.2 12.3 9.8 12.6Q9.3 12.9 8.7 13Q8.1 13.2 7.5 13.2ZM13.2 8.5H12.9L12.8 9H13.2V9.5H12.7L12.5 10.2H12L12.1 9.5H11.7L11.6 10.2H11L11.2 9.5H10.9V9H11.3L11.4 8.5H10.9V8H11.5L11.6 7.3H12.2L12 8H12.4L12.6 7.3H13.1L13 8H13.2V8.5ZM11.8 9H12.2L12.3 8.5H11.9Z M25 13.6Q24.1 13.6 23.5 13.3Q22.8 13 22.5 12.4Q22.1 11.7 22.1 10.9V6.6Q22.1 5.8 22.5 5.1Q22.8 4.5 23.5 4.2Q24.1 3.9 25 3.9Q25.8 3.9 26.4 4.2Q27.1 4.5 27.4 5.2Q27.7 5.8 27.7 6.6H26.6Q26.6 5.8 26.1 5.4Q25.7 4.9 25 4.9Q24.2 4.9 23.7 5.4Q23.3 5.8 23.3 6.6V10.9Q23.3 11.7 23.7 12.1Q24.2 12.6 25 12.6Q25.7 12.6 26.1 12.1Q26.6 11.7 26.6 10.9H27.7Q27.7 11.7 27.4 12.3Q27.1 13 26.4 13.3Q25.8 13.6 25 13.6ZM29.9 13.5 30.4 10.9H29.3V10.1H30.5L31 7.5H29.7V6.6H31.1L31.6 4H32.5L32 6.6H34.1L34.6 4H35.5L35 6.6H36.1V7.5H34.9L34.4 10.1H35.7V10.9H34.3L33.8 13.5H32.9L33.4 10.9H31.3L30.8 13.5ZM31.4 10.1H33.5L34 7.5H31.9ZM45.4 14.9 50 2.7H51.2L46.6 14.9ZM63.9 13.6Q63.4 13.6 63.1 13.3Q62.8 13.1 62.8 12.6Q62.8 12.1 63.1 11.8Q63.4 11.5 63.9 11.5Q64.4 11.5 64.7 11.8Q65 12.1 65 12.6Q65 13.1 64.7 13.3Q64.4 13.6 63.9 13.6ZM69 13.5V4H70.5L73.4 12.1Q73.4 11.8 73.4 11.3Q73.3 10.9 73.3 10.3Q73.3 9.8 73.3 9.3V4H74.4V13.5H72.9L70 5.4Q70 5.7 70 6.2Q70.1 6.6 70.1 7.2Q70.1 7.7 70.1 8.2V13.5ZM76.9 13.5V4H82.4V5.1H78.1V8H81.9V9.1H78.1V12.4H82.4V13.5ZM86.7 13.5V5.1H84.1V4H90.5V5.1H87.9V13.5ZM100.4 13.5 99.3 4H100.4L101.2 11Q101.2 11.3 101.2 11.6Q101.2 11.9 101.3 12.2Q101.3 12.5 101.3 12.7Q101.3 12.5 101.3 12.2Q101.3 11.9 101.4 11.6Q101.4 11.3 101.4 11L102.3 4H103.5L104.3 11Q104.4 11.3 104.4 11.6Q104.4 11.9 104.5 12.2Q104.5 12.5 104.5 12.7Q104.5 12.5 104.6 12.2Q104.6 11.9 104.6 11.6Q104.6 11.3 104.7 11L105.4 4H106.5L105.4 13.5H103.9L103.1 6.4Q103.1 6.1 103 5.8Q103 5.5 103 5.2Q102.9 5 102.9 4.8Q102.9 5 102.9 5.2Q102.8 5.5 102.8 5.8Q102.8 6.1 102.8 6.4L101.9 13.5ZM108 13.5V4H111.1Q111.9 4 112.6 4.4Q113.2 4.7 113.6 5.3Q113.9 5.9 113.9 6.8Q113.9 7.7 113.6 8.3Q113.2 8.9 112.6 9.3Q111.9 9.6 111.1 9.6H109.2V13.5ZM109.2 8.5H111.1Q111.8 8.5 112.3 8.1Q112.7 7.6 112.7 6.8Q112.7 6 112.3 5.5Q111.8 5.1 111.1 5.1H109.2ZM115.8 13.5V4H121.4V5.1H117V8.2H121.1V9.3H117V13.5Z"/></svg>
