<svg xmlns="http://www.w3.org/2000/svg" width="184" height="20" viewBox="0 0 184 20" role="img" aria-label="TypeScript (básico)"><path fill="#848D97" d="M0.6 8.8V15.7H14.4V1.8H0.6ZM11.8 8.2Q12 8.3 12.2 8.4Q12.4 8.5 12.6 8.7Q12.7 8.8 12.8 8.9Q12.9 9 12.9 9.1V9.1Q12.9 9.2 12.6 9.4Q12.3 9.6 12 9.8Q12 9.8 11.9 9.8Q11.9 9.7 11.9 9.7Q11.8 9.5 11.6 9.4Q11.4 9.3 11.2 9.3Q10.9 9.2 10.7 9.4Q10.5 9.5 10.5 9.8Q10.5 9.8 10.5 9.8Q10.5 9.8 10.5 9.8Q10.5 9.9 10.5 10Q10.5 10 10.6 10.1Q10.6 10.2 10.8 10.3Q11 10.4 11.4 10.6Q12.1 10.9 12.5 11.2Q12.9 11.4 13.1 11.7Q13.3 12.1 13.3 12.6Q13.4 13 13.2 13.4Q13.1 13.9 12.7 14.2Q12.3 14.4 11.7 14.5Q11.6 14.5 11.5 14.6Q11.3 14.6 11.2 14.6Q11.1 14.6 10.9 14.5Q10.8 14.5 10.6 14.5H10.6Q10.2 14.4 9.9 14.3Q9.5 14.1 9.2 13.8Q9.1 13.7 9 13.5Q8.8 13.3 8.9 13.3Q8.9 13.2 8.9 13.2Q8.9 13.2 9 13.2L9.5 12.9L9.9 12.6L10 12.8Q10.1 12.9 10.2 13Q10.3 13.2 10.5 13.3L10.5 13.3Q10.8 13.4 11.2 13.4Q11.6 13.4 11.9 13.2Q11.9 13.1 12 13Q12 12.9 12 12.8Q12 12.7 12 12.6Q12 12.5 11.9 12.4Q11.8 12.3 11.6 12.2Q11.4 12.1 11 11.9Q10.4 11.7 10.2 11.5Q9.9 11.3 9.7 11.1Q9.5 10.9 9.4 10.8Q9.3 10.6 9.3 10.4V10.4Q9.3 10.3 9.3 10.1Q9.2 10 9.2 9.9Q9.2 9.8 9.3 9.7Q9.3 9.6 9.3 9.5V9.5Q9.4 9 9.8 8.6Q10.1 8.3 10.7 8.2Q10.8 8.2 10.9 8.2Q11 8.1 11.1 8.1Q11.3 8.1 11.5 8.2Q11.6 8.2 11.8 8.2L11.8 8.2ZM8.5 8.8V9.4H6.7V14.5H5.4V9.4H3.6V8.8Q3.6 8.8 3.6 8.7Q3.6 8.7 3.6 8.7Q3.6 8.5 3.6 8.4Q3.6 8.3 3.6 8.2V8.2Q3.6 8.2 4.3 8.2Q5.1 8.2 6.1 8.2H8.5Z M24.3 13.5V5.1H21.7V4H28.1V5.1H25.5V13.5ZM31.1 15.8 32.2 13.1 29.5 6.4H30.8L32.5 10.8Q32.6 11 32.6 11.3Q32.7 11.6 32.8 11.8Q32.8 11.6 32.9 11.3Q33 11 33.1 10.8L34.6 6.4H35.9L32.4 15.8ZM37.8 15.8V6.4H39V7.7H39.2L39 8Q39 7.2 39.5 6.7Q40 6.2 40.9 6.2Q42 6.2 42.7 6.9Q43.3 7.6 43.3 8.9V11Q43.3 11.8 43 12.4Q42.7 13 42.2 13.3Q41.7 13.6 40.9 13.6Q40.1 13.6 39.5 13.1Q39 12.7 39 11.9L39.2 12.1H38.9L39 13.8V15.8ZM40.5 12.6Q41.3 12.6 41.7 12.2Q42.1 11.7 42.1 10.9V8.9Q42.1 8.1 41.7 7.7Q41.3 7.2 40.5 7.2Q39.8 7.2 39.4 7.7Q39 8.1 39 8.9V10.9Q39 11.7 39.4 12.2Q39.8 12.6 40.5 12.6ZM48.3 13.6Q47.5 13.6 46.8 13.3Q46.2 13 45.8 12.3Q45.5 11.7 45.5 10.9V8.9Q45.5 8.1 45.8 7.5Q46.2 6.9 46.8 6.6Q47.5 6.2 48.3 6.2Q49.1 6.2 49.8 6.6Q50.4 6.9 50.8 7.5Q51.1 8.1 51.1 8.9V10.2H46.6V10.9Q46.6 11.7 47.1 12.2Q47.5 12.6 48.3 12.6Q49 12.6 49.4 12.4Q49.8 12.2 49.9 11.7H51.1Q51 12.6 50.2 13.1Q49.4 13.6 48.3 13.6ZM50 9.4V8.9Q50 8.1 49.5 7.7Q49.1 7.2 48.3 7.2Q47.5 7.2 47.1 7.7Q46.6 8.1 46.6 8.9V9.3H50ZM56.2 13.6Q55.2 13.6 54.5 13.3Q53.9 13 53.5 12.4Q53.1 11.8 53.1 11H54.3Q54.3 11.7 54.8 12.2Q55.3 12.6 56.2 12.6Q57 12.6 57.4 12.2Q57.9 11.8 57.9 11.1Q57.9 10.5 57.6 10.1Q57.3 9.6 56.7 9.5L55.4 9.1Q54.4 8.8 53.9 8.1Q53.4 7.4 53.4 6.4Q53.4 5.6 53.7 5.1Q54.1 4.5 54.7 4.2Q55.3 3.9 56.2 3.9Q57.4 3.9 58.2 4.6Q58.9 5.3 58.9 6.4H57.8Q57.8 5.7 57.4 5.3Q56.9 4.9 56.2 4.9Q55.4 4.9 55 5.3Q54.6 5.6 54.6 6.3Q54.6 6.9 54.9 7.3Q55.2 7.7 55.8 7.9L57.1 8.3Q58 8.6 58.5 9.4Q59.1 10.1 59.1 11Q59.1 11.8 58.7 12.4Q58.3 13 57.7 13.3Q57 13.6 56.2 13.6ZM64 13.6Q63.1 13.6 62.5 13.3Q61.8 13 61.5 12.4Q61.1 11.7 61.1 10.9V8.9Q61.1 8.1 61.5 7.5Q61.8 6.9 62.5 6.5Q63.1 6.2 64 6.2Q65.2 6.2 65.9 6.9Q66.7 7.5 66.7 8.7H65.6Q65.5 8 65.1 7.6Q64.7 7.3 64 7.3Q63.2 7.3 62.7 7.7Q62.3 8.1 62.3 8.9V10.9Q62.3 11.7 62.7 12.1Q63.2 12.6 64 12.6Q64.7 12.6 65.1 12.2Q65.5 11.8 65.6 11.2H66.7Q66.7 12.3 65.9 13Q65.2 13.6 64 13.6ZM69.2 13.5V6.4H70.4V7.7H70.7L70.3 8.6Q70.3 7.4 70.8 6.8Q71.3 6.2 72.3 6.2Q73.4 6.2 74.1 6.9Q74.7 7.6 74.7 8.8V9.3H73.6V8.9Q73.6 8.1 73.2 7.7Q72.8 7.2 72 7.2Q71.3 7.2 70.8 7.7Q70.4 8.1 70.4 8.9V13.5ZM76.7 13.5V12.4H79.2V7.4H77V6.4H80.4V12.4H82.8V13.5ZM79.7 5.1Q79.3 5.1 79 4.8Q78.8 4.6 78.8 4.2Q78.8 3.9 79 3.6Q79.3 3.4 79.7 3.4Q80.1 3.4 80.4 3.6Q80.6 3.9 80.6 4.2Q80.6 4.6 80.4 4.8Q80.1 5.1 79.7 5.1ZM84.6 15.8V6.4H85.8V7.7H86L85.8 8Q85.8 7.2 86.3 6.7Q86.8 6.2 87.7 6.2Q88.8 6.2 89.5 6.9Q90.1 7.6 90.1 8.9V11Q90.1 11.8 89.8 12.4Q89.5 13 89 13.3Q88.5 13.6 87.7 13.6Q86.9 13.6 86.3 13.1Q85.8 12.7 85.8 11.9L86 12.1H85.7L85.8 13.8V15.8ZM87.3 12.6Q88.1 12.6 88.5 12.2Q88.9 11.7 88.9 10.9V8.9Q88.9 8.1 88.5 7.7Q88.1 7.2 87.3 7.2Q86.6 7.2 86.2 7.7Q85.8 8.1 85.8 8.9V10.9Q85.8 11.7 86.2 12.2Q86.6 12.6 87.3 12.6ZM95.9 13.5Q95 13.5 94.4 13Q93.9 12.5 93.9 11.6V7.4H91.9V6.4H93.9V4.3H95.1V6.4H98V7.4H95.1V11.6Q95.1 12.4 95.9 12.4H97.8V13.5ZM113.1 15.1Q111.3 14.6 110.2 13.3Q109.2 11.9 109.2 10V7.7Q109.2 6.4 109.7 5.3Q110.2 4.3 111 3.6Q111.9 2.9 113.1 2.6V3.7Q112.3 3.9 111.7 4.4Q111.1 5 110.7 5.8Q110.4 6.6 110.4 7.7V10Q110.4 11 110.7 11.8Q111 12.6 111.7 13.2Q112.3 13.7 113.1 13.9ZM118.9 13.6Q118 13.6 117.5 13.2Q117 12.7 117 11.9L117.2 12.1H117V13.5H115.8V4H117V6.1L116.9 7.7H117.2L117 8Q117 7.2 117.5 6.7Q118 6.2 118.9 6.2Q120 6.2 120.6 6.9Q121.3 7.7 121.3 8.9V11Q121.3 12.2 120.6 12.9Q120 13.6 118.9 13.6ZM118.5 12.6Q119.3 12.6 119.7 12.2Q120.1 11.7 120.1 10.9V8.9Q120.1 8.1 119.7 7.7Q119.3 7.2 118.5 7.2Q117.8 7.2 117.4 7.7Q117 8.1 117 8.9V10.9Q117 11.7 117.4 12.2Q117.8 12.6 118.5 12.6ZM125.7 13.6Q124.5 13.6 123.9 13.1Q123.2 12.5 123.2 11.5Q123.2 10.5 123.9 9.9Q124.5 9.3 125.6 9.3H127.9V8.6Q127.9 8 127.5 7.6Q127.1 7.2 126.3 7.2Q125.7 7.2 125.3 7.5Q124.8 7.8 124.8 8.2H123.6Q123.7 7.3 124.5 6.8Q125.2 6.2 126.4 6.2Q127.6 6.2 128.3 6.9Q129 7.5 129 8.6V13.5H127.9V12.1H127.7L127.9 11.9Q127.9 12.7 127.3 13.2Q126.7 13.6 125.7 13.6ZM126 12.7Q126.8 12.7 127.3 12.3Q127.9 11.9 127.9 11.2V10.2H125.7Q125.1 10.2 124.8 10.5Q124.4 10.9 124.4 11.4Q124.4 12 124.8 12.4Q125.2 12.7 126 12.7ZM125.6 5.1 127 3.3H128.2L126.8 5.1ZM133.9 13.6Q133.2 13.6 132.6 13.4Q132.1 13.1 131.8 12.7Q131.4 12.3 131.4 11.7H132.5Q132.6 12.1 133 12.3Q133.3 12.6 133.9 12.6H134.4Q135.1 12.6 135.5 12.3Q135.8 12 135.8 11.5Q135.8 11.1 135.5 10.8Q135.2 10.5 134.6 10.5L133.6 10.3Q132.6 10.1 132.1 9.6Q131.5 9.2 131.5 8.3Q131.5 7.3 132.1 6.8Q132.8 6.2 134 6.2H134.5Q135.5 6.2 136.1 6.7Q136.8 7.2 136.9 8H135.7Q135.6 7.7 135.3 7.5Q135 7.3 134.5 7.3H134Q133.3 7.3 133 7.5Q132.7 7.8 132.7 8.3Q132.7 8.7 133 8.9Q133.2 9.1 133.8 9.2L134.8 9.4Q135.9 9.6 136.4 10.1Q137 10.5 137 11.5Q137 12.5 136.3 13Q135.7 13.6 134.4 13.6ZM139.1 13.5V12.4H141.6V7.4H139.4V6.4H142.8V12.4H145.2V13.5ZM142.1 5.1Q141.7 5.1 141.4 4.8Q141.2 4.6 141.2 4.2Q141.2 3.9 141.4 3.6Q141.7 3.4 142.1 3.4Q142.5 3.4 142.8 3.6Q143 3.9 143 4.2Q143 4.6 142.8 4.8Q142.5 5.1 142.1 5.1ZM149.8 13.6Q148.9 13.6 148.3 13.3Q147.6 13 147.3 12.4Q146.9 11.7 146.9 10.9V8.9Q146.9 8.1 147.3 7.5Q147.6 6.9 148.3 6.5Q148.9 6.2 149.8 6.2Q151 6.2 151.7 6.9Q152.5 7.5 152.5 8.7H151.4Q151.3 8 150.9 7.6Q150.5 7.3 149.8 7.3Q149 7.3 148.5 7.7Q148.1 8.1 148.1 8.9V10.9Q148.1 11.7 148.5 12.1Q149 12.6 149.8 12.6Q150.5 12.6 150.9 12.2Q151.3 11.8 151.4 11.2H152.5Q152.5 12.3 151.7 13Q151 13.6 149.8 13.6ZM157.5 13.6Q156.6 13.6 156 13.3Q155.4 13 155 12.3Q154.7 11.7 154.7 10.9V9Q154.7 8.1 155 7.5Q155.4 6.9 156 6.6Q156.6 6.2 157.5 6.2Q158.4 6.2 159 6.6Q159.6 6.9 160 7.5Q160.3 8.1 160.3 9V10.9Q160.3 11.7 160 12.3Q159.6 13 159 13.3Q158.4 13.6 157.5 13.6ZM157.5 12.6Q158.3 12.6 158.7 12.1Q159.1 11.7 159.1 10.9V9Q159.1 8.1 158.7 7.7Q158.3 7.3 157.5 7.3Q156.7 7.3 156.3 7.7Q155.9 8.1 155.9 9V10.9Q155.9 11.7 156.3 12.1Q156.7 12.6 157.5 12.6ZM162.9 15.1V13.9Q163.7 13.7 164.4 13.2Q165 12.6 165.3 11.8Q165.6 11 165.6 10V7.7Q165.6 6.6 165.3 5.8Q164.9 5 164.3 4.4Q163.7 3.9 162.9 3.7V2.6Q164.1 2.9 165 3.6Q165.8 4.3 166.3 5.3Q166.8 6.4 166.8 7.7V10Q166.8 11.9 165.8 13.3Q164.7 14.6 162.9 15.1Z"/></svg>
